<?xml version="1.0" encoding="UTF-8"?>
<svg width="108px" height="108px" viewBox="0 0 108 108" version="1.1" xmlns="http://www.w3.org/2000/svg" xmlns:xlink="http://www.w3.org/1999/xlink">
    <!-- Generator: Sketch 59.1 (86144) - https://sketch.com -->
    <title>all</title>
    <desc>Created with Sketch.</desc>
    <g id="Hi-fi" stroke="none" stroke-width="1" fill="none" fill-rule="evenodd">
        <g id="project" transform="translate(-1286.000000, -3704.000000)" stroke-width="2">
            <g id="all" transform="translate(1287.000000, 3705.000000)">
                <path d="M98.5389651,0 L7.46103493,0 C3.34069332,0 0,3.34069332 0,7.46103493 L0,98.5389651 C0,102.659307 3.34069332,106 7.46103493,106 L98.5389651,106 C102.659307,106 106,102.659307 106,98.5389651 L106,7.46103493 C106,3.34069332 102.659307,0 98.5389651,0 Z" id="Stroke-1" stroke="#EB4B46"></path>
                <path d="M91.8916364,71 C95.8189091,71 99,74.1824234 99,78.107966 L99,78.107966 L99,90.892034 C99,94.8175766 95.8189091,98 91.8916364,98 L91.8916364,98 L79.1083636,98 C75.1810909,98 72,94.8175766 72,90.892034 L72,90.892034 L72,78.107966 C72,74.1824234 75.1810909,71 79.1083636,71 L79.1083636,71 Z M59.892034,71 C63.8175766,71 67,74.1824234 67,78.107966 L67,78.107966 L67,90.892034 C67,94.8175766 63.8175766,98 59.892034,98 L59.892034,98 L47.107966,98 C43.1824234,98 40,94.8175766 40,90.892034 L40,90.892034 L40,78.107966 C40,74.1824234 43.1824234,71 47.107966,71 L47.107966,71 Z M27.892034,71 C31.8175766,71 35,74.1824234 35,78.107966 L35,78.107966 L35,90.892034 C35,94.8175766 31.8175766,98 27.892034,98 L27.892034,98 L15.107966,98 C11.1824234,98 8,94.8175766 8,90.892034 L8,90.892034 L8,78.107966 C8,74.1824234 11.1824234,71 15.107966,71 L15.107966,71 Z M91.8916364,40 C95.8189091,40 99,43.1824234 99,47.107966 L99,47.107966 L99,59.892034 C99,63.819087 95.8189091,67 91.8916364,67 L91.8916364,67 L79.1083636,67 C75.1810909,67 72,63.819087 72,59.892034 L72,59.892034 L72,47.107966 C72,43.1824234 75.1810909,40 79.1083636,40 L79.1083636,40 Z M59.892034,40 C63.8175766,40 67,43.1824234 67,47.107966 L67,47.107966 L67,59.892034 C67,63.819087 63.8175766,67 59.892034,67 L59.892034,67 L47.107966,67 C43.1824234,67 40,63.819087 40,59.892034 L40,59.892034 L40,47.107966 C40,43.1824234 43.1824234,40 47.107966,40 L47.107966,40 Z M27.892034,40 C31.8175766,40 35,43.1824234 35,47.107966 L35,47.107966 L35,59.892034 C35,63.819087 31.8175766,67 27.892034,67 L27.892034,67 L15.107966,67 C11.1824234,67 8,63.819087 8,59.892034 L8,59.892034 L8,47.107966 C8,43.1824234 11.1824234,40 15.107966,40 L15.107966,40 Z M91.8916364,8 C95.8189091,8 99,11.1810909 99,15.1083636 L99,15.1083636 L99,27.8931469 C99,31.8189091 95.8189091,35 91.8916364,35 L91.8916364,35 L79.1083636,35 C75.1810909,35 72,31.8189091 72,27.8931469 L72,27.8931469 L72,15.1083636 C72,11.1810909 75.1810909,8 79.1083636,8 L79.1083636,8 Z M59.892034,8 C63.8175766,8 67,11.1810909 67,15.1083636 L67,15.1083636 L67,27.8931469 C67,31.8189091 63.8175766,35 59.892034,35 L59.892034,35 L47.107966,35 C43.1824234,35 40,31.8189091 40,27.8931469 L40,27.8931469 L40,15.1083636 C40,11.1810909 43.1824234,8 47.107966,8 L47.107966,8 Z M27.892034,8 C31.8175766,8 35,11.1810909 35,15.1083636 L35,15.1083636 L35,27.8931469 C35,31.8189091 31.8175766,35 27.892034,35 L27.892034,35 L15.107966,35 C11.1824234,35 8,31.8189091 8,27.8931469 L8,27.8931469 L8,15.1083636 C8,11.1810909 11.1824234,8 15.107966,8 L15.107966,8 Z" id="Combined-Shape" stroke="#DBD5C9"></path>
            </g>
        </g>
    </g>
</svg>