<?xml version="1.0" encoding="UTF-8"?>
<svg width="103px" height="103px" viewBox="0 0 103 103" version="1.1" xmlns="http://www.w3.org/2000/svg" xmlns:xlink="http://www.w3.org/1999/xlink">
    <!-- Generator: Sketch 59 (86127) - https://sketch.com -->
    <title>Group 5</title>
    <desc>Created with Sketch.</desc>
    <g id="Hi-fi" stroke="none" stroke-width="1" fill="none" fill-rule="evenodd">
        <g id="12.9″-iPad-Pro-Copy-14" transform="translate(-908.000000, -3702.000000)" stroke-width="2">
            <g id="Group-5" transform="translate(909.000000, 3703.000000)">
                <path d="M68.5,64.3917291 L86.5253819,64.3917291 C87.7065364,64.3917291 88.8687107,64.6867856 89.9053235,65.2494177 L98.2332659,69.7692774 C99.4786613,70.4461716 101,69.5523241 101,68.146467 L101,6.76460281 C101,3.02866758 97.9427224,0 94.1700359,0 L42.828504,0 C39.0572776,0 36,3.02866758 36,6.76460281 L36,25.9562887" id="Stroke-1" stroke="#DBD5C9"></path>
                <path d="M0,99.1462515 L0,37.764725 C0,34.0287223 3.05727763,31 6.82996406,31 L58.1700359,31 C61.9427224,31 65,34.0287223 65,37.764725 L65,88.6267208 C65,92.3641699 61.9427224,95.3914458 58.1700359,95.3914458 L14.4746181,95.3914458 C13.2920036,95.3914458 12.1298293,95.6865076 11.0946765,96.2491499 L2.76673405,100.769091 C1.52133872,101.445998 0,100.55358 0,99.1462515 Z" id="Stroke-3" stroke="#EB4B46"></path>
            </g>
        </g>
    </g>
</svg>