<?xml version="1.0" encoding="UTF-8"?>
<svg width="63px" height="108px" viewBox="0 0 63 108" version="1.1" xmlns="http://www.w3.org/2000/svg" xmlns:xlink="http://www.w3.org/1999/xlink">
    <!-- Generator: Sketch 59 (86127) - https://sketch.com -->
    <title>Group 7</title>
    <desc>Created with Sketch.</desc>
    <g id="Hi-fi" stroke="none" stroke-width="1" fill="none" fill-rule="evenodd">
        <g id="12.9″-iPad-Pro-Copy-14" transform="translate(-930.000000, -3018.000000)">
            <g id="Group-7" transform="translate(909.000000, 3020.000000)">
                <rect id="Rectangle" x="0" y="0" width="105" height="105"></rect>
                <path d="M82,74.4996103 C82,90.7917311 68.7925104,104 52.4996103,104 C36.2074896,104 23,90.7917311 23,74.4996103 C23,58.2074896 36.2074896,45 52.4996103,45 C68.7925104,45 82,58.2074896 82,74.4996103 Z" id="Stroke-1" stroke="#08070A" stroke-width="3"></path>
                <path d="M62,74.4996124 C62,79.7471133 57.7471133,84 52.5003876,84 C47.2536619,84 43,79.7471133 43,74.4996124 C43,69.2528867 47.2536619,65 52.5003876,65 C57.7471133,65 62,69.2528867 62,74.4996124" id="Fill-3" fill="#DBD5C9"></path>
                <path d="M23,75 L23,29.818812 C23,13.3504018 36.2074896,0 52.5003897,0 C68.7925104,0 82,13.3504018 82,29.818812 L82,75" id="Stroke-5" stroke="#08070A" stroke-width="3"></path>
            </g>
        </g>
    </g>
</svg>