<?xml version="1.0" encoding="UTF-8"?>
<svg width="110px" height="110px" viewBox="0 0 110 110" version="1.1" xmlns="http://www.w3.org/2000/svg" xmlns:xlink="http://www.w3.org/1999/xlink">
    <!-- Generator: Sketch 59.1 (86144) - https://sketch.com -->
    <title>many</title>
    <desc>Created with Sketch.</desc>
    <g id="Hi-fi" stroke="none" stroke-width="1" fill="none" fill-rule="evenodd">
        <g id="project" transform="translate(-1285.000000, -3017.000000)" stroke-width="3">
            <g id="many" transform="translate(1287.000000, 3019.000000)">
                <path d="M23.5756652,74 C28.228757,74 32,77.771243 32,82.4243348 L32,82.4243348 L32,97.5756652 C32,102.227958 28.228757,106 23.5756652,106 L23.5756652,106 L8.42433479,106 C3.77204247,106 0,102.227958 0,97.5756652 L0,97.5756652 L0,82.4243348 C0,77.771243 3.77204247,74 8.42433479,74 L8.42433479,74 Z M60.5756652,37 C65.228757,37 69,40.771243 69,45.4243348 L69,45.4243348 L69,60.5756652 C69,65.228757 65.228757,69 60.5756652,69 L60.5756652,69 L45.4243348,69 C40.771243,69 37,65.228757 37,60.5756652 L37,60.5756652 L37,45.4243348 C37,40.771243 40.771243,37 45.4243348,37 L45.4243348,37 Z M23.5756652,37 C28.228757,37 32,40.771243 32,45.4243348 L32,45.4243348 L32,60.5756652 C32,65.228757 28.228757,69 23.5756652,69 L23.5756652,69 L8.42433479,69 C3.77204247,69 0,65.228757 0,60.5756652 L0,60.5756652 L0,45.4243348 C0,40.771243 3.77204247,37 8.42433479,37 L8.42433479,37 Z M97.5758757,0 C102.228052,0 106,3.77194823 106,8.42412432 L106,8.42412432 L106,23.5758757 C106,28.2280518 102.228052,32 97.5758757,32 L97.5758757,32 L82.4241243,32 C77.7719482,32 74,28.2280518 74,23.5758757 L74,23.5758757 L74,8.42412432 C74,3.77194823 77.7719482,0 82.4241243,0 L82.4241243,0 Z" id="Combined-Shape" stroke="#DBD5C9"></path>
                <path d="M97.5758757,74 C102.228052,74 106,77.771243 106,82.4243348 L106,82.4243348 L106,97.5756652 C106,102.227958 102.228052,106 97.5758757,106 L97.5758757,106 L82.4241243,106 C77.7719482,106 74,102.227958 74,97.5756652 L74,97.5756652 L74,82.4243348 C74,77.771243 77.7719482,74 82.4241243,74 L82.4241243,74 Z M60.5756652,74 C65.228757,74 69,77.771243 69,82.4243348 L69,82.4243348 L69,97.5756652 C69,102.227958 65.228757,106 60.5756652,106 L60.5756652,106 L45.4243348,106 C40.771243,106 37,102.227958 37,97.5756652 L37,97.5756652 L37,82.4243348 C37,77.771243 40.771243,74 45.4243348,74 L45.4243348,74 Z M97.5758757,37 C102.228052,37 106,40.771243 106,45.4243348 L106,45.4243348 L106,60.5756652 C106,65.228757 102.228052,69 97.5758757,69 L97.5758757,69 L82.4241243,69 C77.7719482,69 74,65.228757 74,60.5756652 L74,60.5756652 L74,45.4243348 C74,40.771243 77.7719482,37 82.4241243,37 L82.4241243,37 Z M60.5756652,0 C65.228757,0 69,3.77194823 69,8.42412432 L69,8.42412432 L69,23.5758757 C69,28.2280518 65.228757,32 60.5756652,32 L60.5756652,32 L45.4243348,32 C40.771243,32 37,28.2280518 37,23.5758757 L37,23.5758757 L37,8.42412432 C37,3.77194823 40.771243,0 45.4243348,0 L45.4243348,0 Z M23.5756652,0 C28.228757,0 32,3.77194823 32,8.42412432 L32,8.42412432 L32,23.5758757 C32,28.2280518 28.228757,32 23.5756652,32 L23.5756652,32 L8.42433479,32 C3.77204247,32 0,28.2280518 0,23.5758757 L0,23.5758757 L0,8.42412432 C0,3.77194823 3.77204247,0 8.42433479,0 L8.42433479,0 Z" id="Combined-Shape" stroke="#08070A"></path>
            </g>
        </g>
    </g>
</svg>