<?xml version="1.0" encoding="UTF-8"?>
<svg width="111px" height="110px" viewBox="0 0 111 110" version="1.1" xmlns="http://www.w3.org/2000/svg" xmlns:xlink="http://www.w3.org/1999/xlink">
    <!-- Generator: Sketch 59.1 (86144) - https://sketch.com -->
    <title>heart</title>
    <desc>Created with Sketch.</desc>
    <g id="Hi-fi" stroke="none" stroke-width="1" fill="none" fill-rule="evenodd">
        <g id="heart" transform="translate(2.000000, 2.000000)" stroke-width="2.545">
            <path d="M107,33.1208322 C107,65.7645909 66.5245174,97.2951789 56.0495236,105.141851 C54.5296548,106.280718 52.4641919,106.286885 50.9391953,105.155213 C40.4477927,97.3804912 0,66.1531215 0,33.1208322 C0,5.05823885 26.7576916,-12.6445685 51.7339985,11.2048328 C52.6918646,12.118599 54.1430215,12.0106739 55.0003834,11.000289 C75.0889068,-12.6445685 107,5.12916109 107,33.1208322 Z" id="Stroke-1" stroke="#08070A"></path>
            <path d="M98,36.4377688 C98,60.9251245 64.9448155,88.4920904 56.0477822,95.1449495 C54.5296498,96.2797045 52.4662582,96.2858494 50.9419878,95.1582635 C42.0316555,88.5648048 9,61.2149581 9,36.4377688 C9,11.448581 31.7617559,-0.592315711 52.4447752,21.8139732 C52.9746894,22.3874956 53.9127806,22.3649643 54.3659697,21.7299932 C71.2608191,-1.9267793 98,9.93694 98,36.4377688 Z" id="Stroke-3" stroke="#DBD5C9"></path>
        </g>
    </g>
</svg>