<?xml version="1.0" encoding="UTF-8"?>
<svg width="429px" height="338px" viewBox="0 0 429 338" version="1.1" xmlns="http://www.w3.org/2000/svg" xmlns:xlink="http://www.w3.org/1999/xlink">
    <!-- Generator: Sketch 59.1 (86144) - https://sketch.com -->
    <title>inspiration</title>
    <desc>Created with Sketch.</desc>
    <g id="Hi-fi" stroke="none" stroke-width="1" fill="none" fill-rule="evenodd">
        <g id="inspiration" transform="translate(0.000000, -2.000000)">
            <text id="465000" font-family="Lato-Regular, Lato" font-size="11" font-weight="normal" letter-spacing="-0.264" fill="#96989C">
                <tspan x="0" y="11">465000</tspan>
            </text>
            <text id="462750" font-family="Lato-Regular, Lato" font-size="11" font-weight="normal" letter-spacing="-0.264" fill="#96989C">
                <tspan x="0" y="69">462750</tspan>
            </text>
            <text id="458250" font-family="Lato-Regular, Lato" font-size="11" font-weight="normal" letter-spacing="-0.264" fill="#96989C">
                <tspan x="0" y="200">458250</tspan>
            </text>
            <text id="460500" font-family="Lato-Regular, Lato" font-size="11" font-weight="normal" letter-spacing="-0.264" fill="#96989C">
                <tspan x="0" y="136">460500</tspan>
            </text>
            <text id="456000" font-family="Lato-Regular, Lato" font-size="11" font-weight="normal" letter-spacing="-0.264" fill="#96989C">
                <tspan x="0" y="265">456000</tspan>
            </text>
            <text id="31---10---2018" transform="translate(69.500000, 312.500000) rotate(-90.000000) translate(-69.500000, -312.500000) " font-family="Lato-Regular, Lato" font-size="10" font-weight="normal" letter-spacing="-0.24" fill="#96989C">
                <tspan x="41.8" y="310.5">31 - 10 - 2018</tspan>
            </text>
            <text id="04---11---2018" transform="translate(193.500000, 312.500000) rotate(-90.000000) translate(-193.500000, -312.500000) " font-family="Lato-Regular, Lato" font-size="10" font-weight="normal" letter-spacing="-0.24" fill="#96989C">
                <tspan x="165.8" y="310.5">04 - 11 - 2018</tspan>
            </text>
            <text id="10---11---2018" transform="translate(315.500000, 312.500000) rotate(-90.000000) translate(-315.500000, -312.500000) " font-family="Lato-Regular, Lato" font-size="10" font-weight="normal" letter-spacing="-0.24" fill="#96989C">
                <tspan x="287.8" y="310.5">10 - 11 - 2018</tspan>
            </text>
            <text id="14---11---2018" transform="translate(420.500000, 312.500000) rotate(-90.000000) translate(-420.500000, -312.500000) " font-family="Lato-Regular, Lato" font-size="10" font-weight="normal" letter-spacing="-0.24" fill="#96989C">
                <tspan x="392.8" y="315.5">14 - 11 - 2018</tspan>
            </text>
            <path d="M57,263 L427,263 M57,133 L427,133 M57,199 L427,199 M57,65 L427,65 M57,4 L427,4" id="Combined-Shape" stroke="#C8C9CA" stroke-width="4"></path>
            <path d="M81.5,243.535705 L173,209 M292.430233,100.59375 L195.569767,194.40625 M69.5,234 C76.4035594,234 82,239.820298 82,247 C82,254.179702 76.4035594,260 69.5,260 C62.5964406,260 57,254.179702 57,247 C57,239.820298 62.5964406,234 69.5,234 Z M184.5,190 C191.403559,190 197,195.820298 197,203 C197,210.179702 191.403559,216 184.5,216 C177.596441,216 172,210.179702 172,203 C172,195.820298 177.596441,190 184.5,190 Z M300.5,80 C307.403559,80 313,85.8202983 313,93 C313,100.179702 307.403559,106 300.5,106 C293.596441,106 288,100.179702 288,93 C288,85.8202983 293.596441,80 300.5,80 Z M414.5,5 C421.403559,5 427,10.8202983 427,18 C427,25.1797017 421.403559,31 414.5,31 C407.596441,31 402,25.1797017 402,18 C402,10.8202983 407.596441,5 414.5,5 Z M311,85 L404,26" id="Combined-Shape" stroke="#EB4B46" stroke-width="3"></path>
        </g>
    </g>
</svg>