<svg width="357" height="597" viewBox="0 0 357 597" fill="none" xmlns="http://www.w3.org/2000/svg">
<g clip-path="url(#clip0_11_2)">
<path d="M138.276 332.601L177.844 213.236L217.412 332.601C219.25 338.146 224.337 341.967 230.175 342.186L347.442 346.591L253.932 426.542C249.853 430.03 248.126 435.543 249.488 440.735L281.99 564.638L186.173 493.719C181.224 490.056 174.463 490.056 169.515 493.719L73.6979 564.638L106.199 440.735C107.561 435.543 105.835 430.03 101.755 426.542L8.24564 346.591L125.513 342.186C131.35 341.967 136.438 338.146 138.276 332.601Z" stroke="#08070A" stroke-width="16"/>
<path d="M61.1081 230.111L4.82434 173.79" stroke="#DBD5C9" stroke-width="16"/>
<path d="M278.203 225.283L334.486 168.962" stroke="#DBD5C9" stroke-width="16"/>
<path d="M176.892 79.6496V0" stroke="#DBD5C9" stroke-width="16"/>
</g>
<defs>
<clipPath id="clip0_11_2">
<rect width="357" height="597" fill="white"/>
</clipPath>
</defs>
</svg>
