<?xml version="1.0" encoding="UTF-8"?>
<svg width="220px" height="479px" viewBox="0 0 220 479" version="1.1" xmlns="http://www.w3.org/2000/svg" xmlns:xlink="http://www.w3.org/1999/xlink">
    <!-- Generator: Sketch 59.1 (86144) - https://sketch.com -->
    <title>Group 35</title>
    <desc>Created with Sketch.</desc>
    <g id="Hi-fi" stroke="none" stroke-width="1" fill="none" fill-rule="evenodd">
        <g id="Homepage" transform="translate(-1134.000000, -5310.000000)">
            <g id="Group-35" transform="translate(1070.000000, 5307.000000)">
                <g id="Group-33" transform="translate(64.000000, 3.000000)">
                    <path d="M6.68017448,330.566314 C12.1802604,332.286274 17.1332995,333.826103 22.0875,335.377553 C35.5488021,339.57809 48.9984896,343.803031 62.4714063,347.962893 C63.7432031,348.3586 65.1253385,348.543961 66.4552083,348.550352 C97.6055208,348.561974 128.761641,348.556163 159.91776,348.480624 C161.712214,348.480624 163.56474,348.068066 165.295313,347.533484 C182.270026,342.280634 199.227318,336.958056 216.190417,331.65814 C217.18869,331.344364 218.210773,331.095086 219.686406,330.688338 C219.686406,336.609416 219.744479,342.251581 219.59349,347.893746 C219.581875,348.416707 218.298464,349.113407 217.49125,349.375468 C212.990599,350.839758 203.919609,354.523709 203.919609,354.523709 C201.742332,355.279842 200.89401,356.359882 200.899818,358.754461 C200.975313,391.764323 200.91724,421.451078 201.004349,454.467331 C201.010156,457.104797 200.35974,458.546425 197.816146,459.71379 C184.738125,465.728419 171.77625,471.992326 158.738299,478.099345 C157.565807,478.650778 156.165669,478.958744 154.877031,478.958744 C127.106563,479.011621 99.3360938,479.011621 71.5708516,478.970947 C70.2700182,478.965136 68.876849,478.650778 67.6863542,478.128399 C54.5270313,472.294481 41.4141667,466.34958 28.2316146,460.556918 C26.26875,459.696939 25.5834896,458.668449 25.5834896,456.495257 C25.6589844,422.804965 25.612526,392.438362 25.6938281,358.748651 C25.6990547,356.308167 24.8656543,355.444862 22.6275781,354.541722 C20.3092881,353.606213 13.3585599,350.822326 8.78880208,349.258674 C7.94035677,348.96814 6.80270833,347.853072 6.77309115,347.085481 C6.59945313,341.775106 6.68017448,336.458338 6.68017448,330.566314 Z M157.665878,316.428652 C159.170547,318.522819 159.006782,320.300886 155.866198,321.537397 C151.235464,323.360787 146.424123,325.047626 141.535545,325.837297 C122.108993,328.97448 102.645274,328.934967 83.3058313,325.056342 C79.5816151,324.309089 75.932313,322.81284 72.4885891,321.160866 C69.814912,319.87845 69.8201385,318.263082 71.2754458,316.506515 C73.4775708,317.874929 75.4264979,319.765723 77.716313,320.377006 C83.6606568,321.96332 89.702563,323.480487 95.8013807,324.14058 C112.400363,325.937821 128.989472,325.740839 145.405524,322.196909 C147.566998,321.729731 149.776092,321.191662 151.755797,320.249752 C153.84468,319.255545 155.685011,317.738959 157.665878,316.428652 Z" id="Combined-Shape" fill="#D95718"></path>
                    <path d="M85.2329609,458.238459 L140.203872,458.238459 C144.62215,458.238459 148.203872,454.656737 148.203872,450.238459 L148.203872,417.346861 C148.203872,412.928583 144.62215,409.346861 140.203872,409.346861 L85.2329609,409.346861 C80.8146829,409.346861 77.2329609,412.928583 77.2329609,417.346861 L77.2329609,450.238459 C77.2329609,454.656737 80.8146829,458.238459 85.2329609,458.238459 Z" id="Path" fill="#9B3807"></path>
                    <path d="M113.227135,425.483121 C118.413047,425.500653 122.71625,429.52164 122.669792,434.304406 C122.623333,439.167941 118.244635,443.1192 112.971615,443.060512 C107.797318,443.008216 103.534766,438.934933 103.639297,434.141126 C103.743828,429.283983 107.977344,425.460559 113.227135,425.483121 Z M51.6066135,323.684442 C52.2157984,327.095889 54.7094495,328.735661 57.440038,329.765894 C63.531887,332.065178 71.2805563,334.258707 78.3840354,335.305791 C104.396637,339.141998 130.455116,339.085054 156.369574,334.299382 C159.595355,333.703747 167.033863,331.717402 172.180319,329.226521 C175.44837,327.644787 177.360308,325.475071 178.06852,324.563016 C180.522101,327.624079 180.414085,330.269679 176.24503,332.155824 C170.753655,334.64105 164.979465,336.944982 159.087968,338.023444 C128.138007,343.688851 97.1381031,343.735337 66.2804781,337.250043 C62.3704286,336.13265 56.8854417,334.274977 52.5479755,332.052975 C48.5113271,329.984956 48.4544156,327.484042 51.6066135,323.684442 Z M123.994214,220.604873 C124.971,220.604873 125.762534,221.396868 125.762534,222.374224 C125.762534,223.350998 124.971,224.143574 123.994214,224.143574 L119.462203,224.143574 L119.462203,257.136585 C156.982534,257.543333 186.64618,262.709603 186.64618,269.019415 C186.64618,269.304138 186.588107,269.583051 186.465573,269.861963 C186.169982,270.576676 185.484722,271.273957 184.451024,271.947995 C184.311649,272.017723 184.166466,272.07583 184.00967,272.133356 C183.103732,272.476767 182.377821,272.871892 181.791865,273.325125 C179.863263,274.818468 179.485789,276.939365 179.189617,279.687233 C176.744748,302.117018 159.055737,318.439204 136.488602,318.915679 C121.889071,319.223645 107.266891,319.235266 92.6667789,318.898247 C70.5293831,318.386908 53.5720914,303.412218 49.8786539,281.640201 C49.8147737,281.262507 49.6695914,279.867945 49.6521695,279.536736 C49.5122138,277.23629 49.1062841,274.562799 46.934357,273.086887 C46.4291227,272.738247 45.8309716,272.430281 45.1457112,272.15195 C44.9772997,272.087451 44.8088883,272.023534 44.6288622,271.960198 C43.0376643,271.401792 42.3117529,270.315196 42.4447398,269.216978 C42.6253466,268.147814 43.2060758,267.438912 43.6300081,267.026354 C49.0830549,261.668912 76.1450341,257.531711 109.461466,257.136585 L109.461466,224.288841 C108.5323,224.224924 107.69605,224.126142 106.853992,224.120332 L106.526749,224.119431 C99.8365941,224.107067 28.0157223,224.20877 6.20782057,224.271409 C3.84425286,224.27722 2.60729974,223.794934 3.64680495,220.721087 C5.76646641,220.721087 8.04873203,220.715276 10.3368049,220.721087 C30.7003635,220.771814 108.125317,220.614785 121.672654,220.605318 L123.994214,220.604873 Z M156.163923,208.91014 C159.398003,212.828859 158.937485,219.826655 154.766688,225.622221 C150.044779,232.183054 142.357087,234.719995 137.593365,231.288791 C137.505095,231.225455 137.417404,231.159213 137.332618,231.091229 C139.787941,218.918446 152.302654,222.257841 156.163923,208.91014 Z M154.691194,207.528884 C154.734167,207.559681 154.777141,207.591059 154.818373,207.623598 C152.162699,220.482041 139.434858,217.582514 135.967324,229.716365 C132.904558,225.763944 133.415019,218.899213 137.519032,213.196035 C142.24036,206.635203 149.928634,204.098262 154.691194,207.528884 Z M26.1970992,179.890521 C29.952094,181.783058 32.2895289,185.039941 31.5026409,189.349138 C29.7871669,198.743256 27.7308049,208.076942 25.6517945,217.399589 C25.4711878,218.207854 24.1662893,219.162548 23.2510602,219.331638 C20.7951565,219.786033 18.2672424,219.851113 15.7677841,220.070756 C6.63291432,219.901084 6.41397943,219.953962 4.27863828,211.086291 C2.56316432,203.962985 1.32563047,196.714749 0.138620052,189.478716 C-0.594260156,185.010888 1.62935182,181.744127 5.54520859,179.812077 C12.397232,176.431427 19.3857268,176.455832 26.1970992,179.890521 Z M121.138188,208.301118 C122.146914,208.84616 122.843789,209.892081 122.783393,211.036203 C122.707899,212.46098 119.499951,213.562684 119.499951,213.562684 C119.499951,213.562684 119.016784,217.723127 118.457542,218.468056 C117.712466,219.461681 116.95868,219.337914 114.702547,219.487248 C112.312847,219.487248 110.895287,219.161269 110.215253,218.395422 C109.681563,217.79518 108.733232,213.466808 108.733232,213.466808 C108.733232,213.466808 106.499748,212.535938 106.327271,211.615527 C106.054328,210.155305 106.93994,208.746797 108.27794,208.101231 C112.654315,205.98847 117.969149,206.589875 121.138188,208.301118 Z M88.0650477,177.069323 C91.2991284,180.988042 90.8386102,187.985837 86.6678133,193.781404 C81.9459044,200.342237 74.2582117,202.879178 69.4944904,199.447974 C69.4062195,199.384638 69.3185294,199.318396 69.233743,199.250411 C71.6890659,187.077629 84.2037794,190.417024 88.0650477,177.069323 Z M86.5923185,175.688067 C86.6352924,175.718864 86.6782664,175.750241 86.7194982,175.782781 C84.0638237,188.641223 71.3359826,185.741697 67.8684487,197.875548 C64.8056831,193.923127 65.316144,187.058395 69.420157,181.355218 C74.1414852,174.794385 81.8297586,172.257445 86.5923185,175.688067 Z M43.6744227,95.1297456 C46.9085034,99.0484647 46.4479852,106.04626 42.2771883,111.841827 C37.5552794,118.40266 29.8675867,120.939601 25.1038654,117.508397 C25.0155945,117.445061 24.9279044,117.378819 24.843118,117.310834 C27.2984409,105.138052 39.8131544,108.477447 43.6744227,95.1297456 Z M42.2016935,93.7484901 C42.2446674,93.7792867 42.2876414,93.8106644 42.3288732,93.8432041 C39.6731987,106.701646 26.9453576,103.80212 23.4778237,115.93597 C20.4150581,111.98355 20.925519,105.118818 25.029532,99.4156412 C29.7508602,92.8548084 37.4391336,90.3178678 42.2016935,93.7484901 Z M156.163923,54.9101399 C159.398003,58.8288589 158.937485,65.8266545 154.766688,71.6222215 C150.044779,78.1830543 142.357087,80.7199949 137.593365,77.2887915 C137.505095,77.2254551 137.417404,77.1592134 137.332618,77.0912285 C139.787941,64.9184461 152.302654,68.2578408 156.163923,54.9101399 Z M154.691194,53.5288844 C154.734167,53.559681 154.777141,53.5910586 154.818373,53.6235984 C152.162699,66.4820405 139.434858,63.5825138 135.967324,75.7163648 C132.904558,71.7639438 133.415019,64.8992127 137.519032,59.1960355 C142.24036,52.6352026 149.928634,50.0982621 154.691194,53.5288844 Z M101.747339,3.51846667 C104.98142,7.4371857 104.520902,14.4349813 100.350105,20.2305482 C95.6281961,26.7913811 87.9405034,29.3283217 83.176782,25.8971182 C83.0885112,25.8337819 83.0008211,25.7675402 82.9160346,25.6995553 C85.3713576,13.5267728 97.8860711,16.8661676 101.747339,3.51846667 Z M100.27461,2.13721118 C100.317584,2.16800775 100.360558,2.1993854 100.40179,2.23192518 C97.7461154,15.0903673 85.0182742,12.1908406 81.5507404,24.3246915 C78.4879747,20.3722706 78.9984357,13.5075395 83.1024487,7.80436224 C87.8237768,1.24352941 95.5120503,-1.29341118 100.27461,2.13721118 Z" id="Combined-Shape" fill="#3D2418"></path>
                    <path d="M119.281597,260.030301 C152.388966,260.28016 178.515972,264.330201 178.515972,267.85728 C178.515972,271.38436 152.388966,273.11013 119.281597,273.359989 L119.281597,260.030301 Z M109.409201,260.03617 L109.409201,273.354237 C76.5747737,273.075324 50.7555549,271.361175 50.7555549,267.857338 C50.7555549,264.353501 76.5747737,260.314501 109.409201,260.03617 Z" id="Combined-Shape" fill="#FFFFFF"></path>
                </g>
            </g>
        </g>
    </g>
</svg>