<?xml version="1.0" encoding="UTF-8"?>
<svg width="251px" height="69px" viewBox="0 0 251 69" version="1.1" xmlns="http://www.w3.org/2000/svg" xmlns:xlink="http://www.w3.org/1999/xlink">
    <!-- Generator: Sketch 59.1 (86144) - https://sketch.com -->
    <title>Group 17 Copy</title>
    <desc>Created with Sketch.</desc>
    <defs>
        <polygon id="path-1" points="0 0.953914286 57.5794171 0.953914286 57.5794171 61.9938 0 61.9938"></polygon>
        <polygon id="path-3" points="0.519009091 0.344693787 35.9767818 0.344693787 35.9767818 68.992246 0.519009091 68.992246"></polygon>
        <polygon id="path-5" points="0.199613793 0.344693787 47.5332414 0.344693787 47.5332414 68.9926067 0.199613793 68.9926067"></polygon>
        <polygon id="path-7" points="0.749333333 0.288121297 29.291 0.288121297 29.291 60.8077226 0.749333333 60.8077226"></polygon>
    </defs>
    <g id="Hi-fi" stroke="none" stroke-width="1" fill="none" fill-rule="evenodd">
        <g id="About" transform="translate(-593.000000, -1987.000000)">
            <g id="Group-17-Copy" transform="translate(593.000000, 1987.000000)">
                <g id="Group-3" transform="translate(0.000000, 7.000000)">
                    <mask id="mask-2" fill="white">
                        <use xlink:href="#path-1"></use>
                    </mask>
                    <g id="Clip-2"></g>
                    <path d="M13.9750171,37.1566 L21.6658171,15.6036286 L28.9241029,37.1566 L13.9750171,37.1566 Z M52.85656,54.7539714 L33.4928457,0.953914286 C32.3742743,1.06728571 30.9822743,1.1222 29.3168457,1.1222 C27.6514171,1.1222 26.2445029,1.06728571 25.0994171,0.953914286 L7.33816,50.1642 C6.11518857,53.5883714 4.91210286,56.0736857 3.72724571,57.6166 C2.54404571,59.1577429 1.30284571,60.0434571 -0.00132571429,60.2684286 L-0.00132571429,61.9938 C1.58621714,61.8255143 3.64438857,61.7404857 6.16821714,61.7404857 C9.16101714,61.7404857 12.6476457,61.8255143 16.62976,61.9938 L16.62976,60.2684286 C14.2351886,60.1834 12.4322171,59.7051143 11.2225029,58.8353429 C10.0127886,57.9655714 9.40793143,56.3518 9.40793143,53.9958 C9.40793143,51.3280286 10.2679886,47.5832286 11.9847886,42.7560857 L13.3502743,38.8837429 L29.4742743,38.8837429 L34.2352457,53.0268286 C34.8848457,54.8797429 35.2096457,56.2402 35.2096457,57.1099714 C35.2096457,58.2312857 34.7754743,59.0195714 33.90216,59.4677429 C33.0305029,59.9176857 31.59376,60.1834 29.5902743,60.2684286 L29.5902743,61.9938 C32.4505029,61.8255143 36.92976,61.7404857 43.0164457,61.7404857 C48.8744457,61.7404857 53.72656,61.8255143 57.5794171,61.9938 L57.5794171,60.2684286 C56.7723886,60.2117429 55.9521029,59.7405429 55.1202171,58.8566 C54.2866743,57.9726571 53.5326743,56.6051143 52.85656,54.7539714 L52.85656,54.7539714 Z" id="Fill-1" fill="#FFFFFF" mask="url(#mask-2)"></path>
                </g>
                <g id="Group-6" transform="translate(131.000000, 0.000000)">
                    <mask id="mask-4" fill="white">
                        <use xlink:href="#path-3"></use>
                    </mask>
                    <g id="Clip-5"></g>
                    <path d="M23.3379182,5.97932293 C22.3876909,7.39307441 21.9100545,8.97092204 21.9100545,10.7146691 C21.9100545,13.0011957 22.5710091,14.7864176 23.8912364,16.072138 C25.2131455,17.3578584 26.9958727,17.999817 29.2411,17.999817 C30.5091909,17.999817 31.6578727,17.6626084 32.6888273,16.9917978 C33.7181,16.3209871 34.5220091,15.4355892 35.1039182,14.335604 C35.6858273,13.2356188 35.9767818,12.0869457 35.9767818,10.8859783 C35.9767818,9.28649157 35.6858273,7.85831405 35.1039182,6.60144571 C34.5220091,5.34277411 33.8106,4.34557441 32.9663273,3.60263358 C30.3511,1.43151524 27.1001455,0.344152811 23.2185091,0.344152811 C20.8673273,0.344152811 18.6052818,0.766114349 16.4256455,1.60823417 C14.2460091,2.45035399 12.4834636,3.50165133 11.1363273,4.75851967 C9.68323636,6.10194423 8.54632727,7.55897382 7.72896364,9.12960843 C6.90823636,10.700243 6.31455455,12.6225123 5.94455455,14.8910064 C5.57455455,17.163107 5.39123636,20.0429043 5.39123636,23.5267919 L0.519009091,23.5267919 L0.519009091,25.2849649 L5.39123636,25.2849649 L5.39123636,60.8523555 C5.39123636,62.478891 5.24491818,63.7501854 4.95396364,64.6644354 C4.66300909,65.5804886 4.18873636,66.2224472 3.52946364,66.5939176 C2.86850909,66.9635848 1.97041818,67.1511232 0.835190909,67.1511232 L0.835190909,68.992246 C6.64587273,68.7650359 10.3828727,68.6514309 12.0461909,68.6514309 C14.0526,68.6514309 19.0206909,68.7650359 26.9437364,68.992246 L26.9437364,67.1511232 C24.5925545,67.1511232 22.8434636,66.6299827 21.6931,65.5858984 C20.5461,64.5454206 19.9709182,62.6664294 19.9709182,59.9507283 L19.9709182,25.2849649 L28.6457364,25.2849649 L28.6457364,23.5267919 L19.9709182,23.5267919 L19.9709182,11.7858022 C19.9709182,9.5858318 20.1021,7.88175636 20.3661455,6.66636287 C20.6301909,5.45096938 21.0136455,4.48803151 21.5148273,3.7721395 C22.4129182,2.65953151 23.6810091,2.10232589 25.3191,2.10232589 C26.4005091,2.10232589 27.1421909,2.37281405 27.5374182,2.91559364 C25.6874182,3.54492944 24.2881455,4.56557145 23.3379182,5.97932293" id="Fill-4" fill="#FFFFFF" mask="url(#mask-4)"></path>
                </g>
                <g id="Group-9" transform="translate(203.000000, 0.000000)">
                    <mask id="mask-6" fill="white">
                        <use xlink:href="#path-5"></use>
                    </mask>
                    <g id="Clip-8"></g>
                    <path d="M44.9025103,66.5942783 C44.2636138,66.2228078 43.8034759,65.5808493 43.517131,64.664796 C43.2307862,63.750546 43.0884414,62.4792516 43.0884414,60.8509129 L43.0884414,37.0677901 C43.0884414,34.1266821 42.8997517,31.7626155 42.5240276,29.9755904 C42.1449931,28.1903685 41.5557517,26.769404 40.7480276,25.7126969 C38.9819586,23.3702694 35.9778207,22.1999572 31.7422345,22.1999572 C25.6859586,22.1999572 21.4487172,24.3999277 19.0305103,28.7980652 L19.0305103,0.344513462 C15.3659586,1.1740105 10.7380966,1.58695577 5.15023448,1.58695577 C3.51326897,1.58695577 1.8614069,1.50039956 0.199613793,1.33089364 L0.199613793,3.17201642 C1.83657931,3.17201642 2.99354483,3.77971317 3.66885517,4.99510666 C4.34416552,6.20869689 4.68182069,8.17244098 4.68182069,10.8845357 L4.68182069,60.8509129 C4.68182069,62.4792516 4.53947586,63.750546 4.25313103,64.664796 C3.96844138,65.5808493 3.49837241,66.2228078 2.8512,66.5942783 C2.19906207,66.9639454 1.31685517,67.1514839 0.199613793,67.1514839 L0.199613793,68.9926067 C6.33368276,68.7653966 10.3226483,68.6517916 12.1698207,68.6517916 C13.8845793,68.6517916 17.3935448,68.7653966 22.6967172,68.9926067 L22.6967172,67.1514839 C21.7615448,67.1514839 21.0316138,66.9639454 20.5135448,66.5942783 C19.9921655,66.2228078 19.6164414,65.5808493 19.3814069,64.664796 C19.1480276,63.750546 19.0305103,62.4792516 19.0305103,60.8509129 L19.0305103,33.0825978 C19.0305103,31.8834336 19.3036138,30.8050874 19.8498207,29.8475593 C20.3960276,28.8918345 21.1110621,28.1416806 21.9949241,27.598901 C22.877131,27.0543182 23.8139586,26.78383 24.8004414,26.78383 C26.1527172,26.78383 27.1425103,27.2346436 27.7648552,28.1344676 C28.3888552,29.0342916 28.7016828,30.426404 28.7016828,32.3126081 L28.7016828,60.8509129 C28.7016828,62.4792516 28.5841655,63.750546 28.349131,64.664796 C28.1157517,65.5808493 27.7400276,66.2228078 27.2186483,66.5942783 C26.6989241,66.9639454 25.9706483,67.1514839 25.0354759,67.1514839 L25.0354759,68.9926067 C30.7524414,68.7653966 34.5361655,68.6517916 36.3816828,68.6517916 C38.0980966,68.6517916 41.8156138,68.7653966 47.5342345,68.9926067 L47.5342345,67.1514839 C46.4153379,67.1514839 45.5380966,66.9639454 44.9025103,66.5942783" id="Fill-7" fill="#FFFFFF" mask="url(#mask-6)"></path>
                </g>
                <path d="M110.819791,63.1902854 C109.951464,65.6705727 108.824452,66.9442827 107.376142,66.9442827 C105.993739,66.9442827 104.996893,65.4582877 104.35265,62.4808543 C103.677102,59.4707617 103.38711,55.6804763 103.453018,51.0029484 L112.523491,51.0029484 C112.266453,56.600378 111.688118,60.6737101 110.819791,63.1902854 M122.045429,26.7389529 C118.733594,22.9123795 114.326052,21 108.859053,21 C105.896526,21 103.322851,21.7439047 101.105075,23.1609526 C98.8856511,24.5780004 97.0830901,26.4196182 95.6677337,28.6513325 C94.2836833,30.8830467 93.191272,33.3270459 92.4514641,35.9143829 L93.802561,36.4804763 C96.3103286,32.5468531 99.4952923,30.6 103.291545,30.6 C105.832266,30.6 107.956125,31.8047628 109.692778,34.1780004 C111.462386,36.551238 112.330713,40.5538084 112.330713,46.187526 C112.330713,47.6027594 112.297759,48.6659989 112.2335,49.3391419 L92,49.3391419 C92,62.4463806 96.9199699,69 106.799454,69 C110.755531,69 114.228839,68.1490455 117.25233,66.412663 C120.277469,64.7143829 122.658366,62.0562843 124.393372,58.4782839 C126.131673,54.8658099 127,50.3679078 127,44.9464751 C127,36.6219996 125.327606,30.5292383 122.045429,26.7389529" id="Fill-10" fill="#FFFFFF"></path>
                <path d="M183.820677,63.1902854 C182.952309,65.6705727 181.825244,66.9442827 180.376865,66.9442827 C178.994398,66.9442827 177.997505,65.4582877 177.353232,62.4808543 C176.677652,59.4707617 176.387647,55.6804763 176.451909,51.0029484 L185.524457,51.0029484 C185.267407,56.600378 184.687397,60.6737101 183.820677,63.1902854 M195.045196,26.7389529 C191.734852,22.9123795 187.325455,21 181.858199,21 C178.89718,21 176.323384,21.7439047 174.105504,23.1609526 C171.884327,24.5780004 170.083329,26.4196182 168.667906,28.6513325 C167.283791,30.8830467 166.191328,33.3270459 165.451485,35.9143829 L166.800998,36.4804763 C169.308884,32.5468531 172.495645,30.6 176.292077,30.6 C178.832917,30.6 180.956876,31.8047628 182.693611,34.1780004 C184.463302,36.551238 185.33167,40.5538084 185.33167,46.187526 C185.33167,47.6027594 185.298715,48.6659989 185.234452,49.3391419 L165,49.3391419 C165,62.4463806 169.920201,69 179.798503,69 C183.756414,69 187.229886,68.1490455 190.253519,66.412663 C193.277153,64.7143829 195.658161,62.0562843 197.394897,58.4782839 C199.13328,54.8658099 200,50.3679078 200,44.9464751 C200,36.6219996 198.329175,30.5292383 195.045196,26.7389529" id="Fill-12" fill="#FFFFFF"></path>
                <g id="Group-16" transform="translate(56.000000, 8.000000)">
                    <mask id="mask-8" fill="white">
                        <use xlink:href="#path-7"></use>
                    </mask>
                    <g id="Clip-15"></g>
                    <path d="M21.321,0.288121297 C19.2276667,1.62052581 17.016,2.58987244 14.686,3.19973813 C12.356,3.80960382 9.73933333,4.11364243 6.83433333,4.11364243 L6.83433333,14.4831476 L0.749333333,14.4831476 L0.749333333,16.22511 L6.83433333,16.22511 L6.83433333,45.7204324 C6.83433333,48.9807994 7.01766667,51.5168391 7.38433333,53.3285516 C7.74766667,55.1420525 8.48266667,56.6443609 9.58266667,57.8336884 C11.4143333,59.8170933 14.176,60.8079015 17.866,60.8079015 C23.0226667,60.8079015 26.831,58.5133042 29.291,53.9241096 L28.0743333,52.8617629 C27.4193333,53.7398979 26.701,54.3837444 25.9143333,54.7950908 C25.1293333,55.2064371 24.4093333,55.4103218 23.756,55.4103218 C22.866,55.4103218 22.2376667,55.1706679 21.871,54.6895715 C21.5043333,54.2066866 21.321,53.4000901 21.321,52.2644164 L21.321,16.22511 L29.2126667,16.22511 L29.2126667,14.4831476 L21.321,14.4831476 L21.321,0.288121297" id="Fill-14" fill="#FFFFFF" mask="url(#mask-8)"></path>
                </g>
            </g>
        </g>
    </g>
</svg>