<?xml version="1.0" encoding="UTF-8"?>
<svg width="251px" height="69px" viewBox="0 0 251 69" version="1.1" xmlns="http://www.w3.org/2000/svg" xmlns:xlink="http://www.w3.org/1999/xlink">
    <!-- Generator: Sketch 59 (86127) - https://sketch.com -->
    <title>Group 17 Copy</title>
    <desc>Created with Sketch.</desc>
    <defs>
        <polygon id="path-1" points="0 0.957193208 57.5030519 0.957193208 57.5030519 62.2068934 0 62.2068934"></polygon>
        <polygon id="path-3" points="0.509805677 0.344693787 35.3388176 0.344693787 35.3388176 68.992246 0.509805677 68.992246"></polygon>
        <polygon id="path-5" points="0.198371852 0.344693787 47.2375029 0.344693787 47.2375029 68.9926067 0.198371852 68.9926067"></polygon>
        <polygon id="path-7" points="0.737579085 0.288508453 28.8315333 0.288508453 28.8315333 60.8894315 0.737579085 60.8894315"></polygon>
    </defs>
    <g id="Page-1" stroke="none" stroke-width="1" fill="none" fill-rule="evenodd">
        <g id="12.9″-iPad-Pro-Copy-20" transform="translate(-593.000000, -405.000000)">
            <g id="Group-17-Copy" transform="translate(593.000000, 405.000000)">
                <g id="Group-3" transform="translate(0.000000, 6.786885)">
                    <mask id="mask-2" fill="white">
                        <use xlink:href="#path-1"></use>
                    </mask>
                    <g id="Clip-2"></g>
                    <path d="M13.9564826,37.2843197 L21.6370826,15.6572635 L28.885742,37.2843197 L13.9564826,37.2843197 Z M52.7864585,54.9421792 L33.4484255,0.957193208 C32.3313376,1.07095433 30.9411837,1.12605738 29.277964,1.12605738 C27.6147442,1.12605738 26.2096958,1.07095433 25.0661288,0.957193208 L7.32842769,50.3366311 C6.10707824,53.7725726 4.90558813,56.2664297 3.72230242,57.8146475 C2.54067165,59.3610878 1.3011178,60.2498466 -0.00132395604,60.4755913 L-0.00132395604,62.2068934 C1.58411341,62.0380293 3.63955516,61.9527084 6.16003648,61.9527084 C9.14886725,61.9527084 12.6308716,62.0380293 16.6077046,62.2068934 L16.6077046,60.4755913 C14.216309,60.3902705 12.4157288,59.9103407 11.2076189,59.0375796 C9.99950901,58.1648185 9.39545407,56.5455 9.39545407,54.1814016 C9.39545407,51.5044602 10.2543705,47.7467881 11.9688936,42.9030527 L13.3325684,39.0173993 L29.4351837,39.0173993 L34.1898409,53.2090995 C34.8385793,55.0683829 35.1629486,56.4335164 35.1629486,57.3062775 C35.1629486,58.4314461 34.729353,59.2224415 33.8571969,59.6721534 C32.9866958,60.1236429 31.5518585,60.3902705 29.5510299,60.4755913 L29.5510299,62.2068934 C32.4074651,62.0380293 36.8807815,61.9527084 42.9593947,61.9527084 C48.8096255,61.9527084 53.6553046,62.0380293 57.5030519,62.2068934 L57.5030519,60.4755913 C56.6970936,60.4187108 55.8778958,59.9458911 55.0471134,59.0589098 C54.214676,58.1719286 53.461676,56.799685 52.7864585,54.9421792 L52.7864585,54.9421792 Z" id="Fill-1" fill="#000000" mask="url(#mask-2)"></path>
                </g>
                <g id="Group-6" transform="translate(131.746606, 0.000000)">
                    <mask id="mask-4" fill="white">
                        <use xlink:href="#path-3"></use>
                    </mask>
                    <g id="Clip-5"></g>
                    <path d="M22.9240747,5.97932293 C21.9906975,7.39307441 21.5215309,8.97092204 21.5215309,10.7146691 C21.5215309,13.0011957 22.170765,14.7864176 23.4675811,16.072138 C24.7660492,17.3578584 26.517164,17.999817 28.7225774,17.999817 C29.9681817,17.999817 31.0964943,17.6626084 32.1091673,16.9917978 C33.1201882,16.3209871 33.9098419,15.4355892 34.4814322,14.335604 C35.0530225,13.2356188 35.3388176,12.0869457 35.3388176,10.8859783 C35.3388176,9.28649157 35.0530225,7.85831405 34.4814322,6.60144571 C33.9098419,5.34277411 33.211048,4.34557441 32.3817464,3.60263358 C29.8128941,1.43151524 26.6195877,0.344152811 22.8067831,0.344152811 C20.497294,0.344152811 18.2753606,0.766114349 16.134375,1.60823417 C13.9933894,2.45035399 12.2620986,3.50165133 10.9388505,4.75851967 C9.51152678,6.10194423 8.39477812,7.55897382 7.59190852,9.12960843 C6.78573492,10.700243 6.20258067,12.6225123 5.83914175,14.8910064 C5.47570284,17.163107 5.29563538,20.0429043 5.29563538,23.5267919 L0.509805677,23.5267919 L0.509805677,25.2849649 L5.29563538,25.2849649 L5.29563538,60.8523555 C5.29563538,62.478891 5.15191181,63.7501854 4.86611666,64.6644354 C4.58032151,65.5804886 4.11445891,66.2224472 3.46687684,66.5939176 C2.81764278,66.9635848 1.93547742,67.1511232 0.820380749,67.1511232 L0.820380749,68.992246 C6.52802369,68.7650359 10.1987567,68.6514309 11.8325798,68.6514309 C13.80341,68.6514309 18.6834034,68.7650359 26.4659521,68.992246 L26.4659521,67.1511232 C24.156463,67.1511232 22.4383882,66.6299827 21.3084235,65.5858984 C20.1817629,64.5454206 19.6167806,62.6664294 19.6167806,59.9507283 L19.6167806,25.2849649 L28.1377711,25.2849649 L28.1377711,23.5267919 L19.6167806,23.5267919 L19.6167806,11.7858022 C19.6167806,9.5858318 19.7456362,7.88175636 20.0049994,6.66636287 C20.2643626,5.45096938 20.6410175,4.48803151 21.1333121,3.7721395 C22.0154774,2.65953151 23.2610817,2.10232589 24.8701249,2.10232589 C25.9323577,2.10232589 26.6608875,2.37281405 27.0491064,2.91559364 C25.2319118,3.54492944 23.8574519,4.56557145 22.9240747,5.97932293" id="Fill-4" fill="#000000" mask="url(#mask-4)"></path>
                </g>
                <g id="Group-9" transform="translate(203.298643, 0.000000)">
                    <mask id="mask-6" fill="white">
                        <use xlink:href="#path-5"></use>
                    </mask>
                    <g id="Clip-8"></g>
                    <path d="M44.6231395,66.5942783 C43.988218,66.2228078 43.5309429,65.5808493 43.2463797,64.664796 C42.9618164,63.750546 42.8203572,62.4792516 42.8203572,60.8509129 L42.8203572,37.0677901 C42.8203572,34.1266821 42.6328415,31.7626155 42.259455,29.9755904 C41.8827788,28.1903685 41.2972035,26.769404 40.4945048,25.7126969 C38.7394238,23.3702694 35.7539768,22.1999572 31.5447432,22.1999572 C25.5261478,22.1999572 21.3152693,24.3999277 18.9121078,28.7980652 L18.9121078,0.344513462 C15.2703559,1.1740105 10.6712871,1.58695577 5.11819117,1.58695577 C3.49141039,1.58695577 1.84982575,1.50039956 0.198371852,1.33089364 L0.198371852,3.17201642 C1.82515263,3.17201642 2.97491983,3.77971317 3.64602858,4.99510666 C4.31713734,6.20869689 4.65269171,8.17244098 4.65269171,10.8845357 L4.65269171,60.8509129 C4.65269171,62.4792516 4.51123252,63.750546 4.22666925,64.664796 C3.94375085,65.5808493 3.47660652,66.2228078 2.83346063,66.5942783 C2.18538012,66.9639454 1.30866207,67.1514839 0.198371852,67.1514839 L0.198371852,68.9926067 C6.29427636,68.7653966 10.2584237,68.6517916 12.0941035,68.6517916 C13.7981934,68.6517916 17.2853271,68.7653966 22.5555046,68.9926067 L22.5555046,67.1514839 C21.6261506,67.1514839 20.900761,66.9639454 20.3859153,66.5942783 C19.8677799,66.2228078 19.4943934,65.5808493 19.2608212,64.664796 C19.0288939,63.750546 18.9121078,62.4792516 18.9121078,60.8509129 L18.9121078,33.0825978 C18.9121078,31.8834336 19.1835121,30.8050874 19.7263207,29.8475593 C20.2691292,28.8918345 20.979715,28.1416806 21.8580779,27.598901 C22.7347959,27.0543182 23.6657949,26.78383 24.64614,26.78383 C25.9900024,26.78383 26.9736373,27.2346436 27.59211,28.1344676 C28.2122277,29.0342916 28.5231089,30.426404 28.5231089,32.3126081 L28.5231089,60.8509129 C28.5231089,62.4792516 28.4063229,63.750546 28.1727507,64.664796 C27.9408234,65.5808493 27.5674369,66.2228078 27.0493015,66.5942783 C26.5328109,66.9639454 25.8090662,67.1514839 24.8797122,67.1514839 L24.8797122,68.9926067 C30.5611083,68.7653966 34.3212912,68.6517916 36.1553261,68.6517916 C37.8610609,68.6517916 41.5554488,68.7653966 47.2384898,68.9926067 L47.2384898,67.1514839 C46.1265547,67.1514839 45.2547713,66.9639454 44.6231395,66.5942783" id="Fill-7" fill="#000000" mask="url(#mask-6)"></path>
                </g>
                <path d="M110.927187,63.2498112 C110.053696,65.7046857 108.919982,66.9653454 107.463059,66.9653454 C106.072435,66.9653454 105.069661,65.4945757 104.421587,62.5476488 C103.742021,59.5683973 103.450305,55.8169468 103.516604,51.1873444 L112.641019,51.1873444 C112.382453,56.7274233 111.800678,60.7590204 110.927187,63.2498112 M122.219584,27.1719555 C118.888053,23.3845887 114.4543,21.4918033 108.954789,21.4918033 C105.974643,21.4918033 103.385663,22.228086 101.154698,23.6306149 C98.9220751,25.0331438 97.1087943,26.8558926 95.6850208,29.0647409 C94.2927394,31.2735892 93.1938316,33.6925475 92.449624,36.2533749 L93.8087559,36.8136681 C96.3314372,32.9203485 99.5353419,30.9934426 103.354171,30.9934426 C105.910002,30.9934426 108.046491,32.1858615 109.793472,34.5347832 C111.573604,36.8837048 112.447094,40.8452652 112.447094,46.4212604 C112.447094,47.8219934 112.413945,48.874339 112.349303,49.5405852 L91.9954751,49.5405852 C91.9954751,62.5135284 96.944704,69 106.882941,69 C110.862546,69 114.356509,68.1577643 117.397981,66.4391726 C120.44111,64.7582929 122.836166,62.1274289 124.58149,58.5860883 C126.330129,55.0106274 127.20362,50.5588104 127.20362,45.1929252 C127.20362,36.9537414 125.52128,30.923406 122.219584,27.1719555" id="Fill-10" fill="#000000"></path>
                <path d="M183.615861,63.2498112 C182.742329,65.7046857 181.608561,66.9653454 180.15157,66.9653454 C178.76088,66.9653454 177.758059,65.4945757 177.109954,62.5476488 C176.430357,59.5683973 176.138627,55.8169468 176.203271,51.1873444 L185.329774,51.1873444 C185.071195,56.7274233 184.487736,60.7590204 183.615861,63.2498112 M194.907132,27.1719555 C191.577102,23.3845887 187.141483,21.4918033 181.641712,21.4918033 C178.663084,21.4918033 176.073982,22.228086 173.842912,23.6306149 C171.608526,25.0331438 169.796818,26.8558926 168.372977,29.0647409 C166.98063,31.2735892 165.881671,33.6925475 165.137428,36.2533749 L166.494967,36.8136681 C169.017767,32.9203485 172.22348,30.9934426 176.042488,30.9934426 C178.59844,30.9934426 180.735029,32.1858615 182.482093,34.5347832 C184.262308,36.8837048 185.13584,40.8452652 185.13584,46.4212604 C185.13584,47.8219934 185.102689,48.874339 185.038044,49.5405852 L164.683258,49.5405852 C164.683258,62.5135284 169.63272,69 179.569767,69 C183.551217,69 187.045345,68.1577643 190.08696,66.4391726 C193.128575,64.7582929 195.523743,62.1274289 197.270807,58.5860883 C199.019528,55.0106274 199.891403,50.5588104 199.891403,45.1929252 C199.891403,36.9537414 198.210641,30.923406 194.907132,27.1719555" id="Fill-12" fill="#000000"></path>
                <g id="Group-16" transform="translate(56.787330, 7.918033)">
                    <mask id="mask-8" fill="white">
                        <use xlink:href="#path-7"></use>
                    </mask>
                    <g id="Clip-15"></g>
                    <path d="M20.9865529,0.288508453 C18.9260562,1.62270335 16.7490824,2.59335252 14.4556314,3.2040377 C12.1621804,3.81472288 9.58655948,4.11917004 6.7271281,4.11917004 L6.7271281,14.502609 L0.737579085,14.502609 L0.737579085,16.2469121 L6.7271281,16.2469121 L6.7271281,45.7818681 C6.7271281,49.0466161 6.90758562,51.5860636 7.26850065,53.4002105 C7.62613464,55.2161482 8.34960523,56.7204754 9.43235033,57.911401 C11.235285,59.897471 13.9536314,60.8896105 17.585749,60.8896105 C22.6615268,60.8896105 26.4101216,58.5919299 28.8315333,53.9965687 L27.6339516,52.9327945 C26.9892261,53.8121096 26.2821608,54.4568212 25.507834,54.8687203 C24.7351477,55.2806194 24.0264418,55.4847781 23.3833569,55.4847781 C22.5073176,55.4847781 21.8888405,55.2448021 21.5279255,54.7630592 C21.1670105,54.2795255 20.9865529,53.4718451 20.9865529,52.3346454 L20.9865529,16.2469121 L28.7544288,16.2469121 L28.7544288,14.502609 L20.9865529,14.502609 L20.9865529,0.288508453" id="Fill-14" fill="#000000" mask="url(#mask-8)"></path>
                </g>
            </g>
        </g>
    </g>
</svg>