<?xml version="1.0" encoding="UTF-8"?>
<svg width="62px" height="30px" viewBox="0 0 62 30" version="1.1" xmlns="http://www.w3.org/2000/svg" xmlns:xlink="http://www.w3.org/1999/xlink">
    <!-- Generator: Sketch 59.1 (86144) - https://sketch.com -->
    <title>s-logo</title>
    <desc>Created with Sketch.</desc>
    <defs>
        <polygon id="path-1" points="0.638577075 0.0958994709 24.6362055 0.0958994709 24.6362055 28.660209 0.638577075 28.660209"></polygon>
    </defs>
    <g id="Page-1" stroke="none" stroke-width="1" fill="none" fill-rule="evenodd">
        <g id="s-logo">
            <polygon id="Fill-1" fill="#EB4B46" points="0 30 30 30 30 0 0 0"></polygon>
            <g id="Group-4" transform="translate(37.000000, 0.000000)">
                <mask id="mask-2" fill="white">
                    <use xlink:href="#path-1"></use>
                </mask>
                <g id="Clip-3"></g>
                <path d="M9.10498024,24.7751296 C9.55083004,26.5496534 10.2456917,27.4380661 11.1919368,27.4380661 C12.1737549,27.4380661 12.9611067,26.6900503 13.5563636,25.1963201 C14.1516206,23.7002884 14.5358103,21.2882249 14.7113043,17.9601296 L8.48837945,17.9601296 C8.45517787,20.7289392 8.65913043,23.0006058 9.10498024,24.7751296 M14.5808696,15.0808439 C14.5808696,11.7320344 13.9808696,9.34989153 12.7808696,7.93211376 C11.5832411,6.51203439 10.1176285,5.80544709 8.38166008,5.80544709 C5.77533597,5.80544709 3.60537549,6.96774868 1.87177866,9.29465344 L0.951620553,8.96552646 C1.45913043,7.41885979 2.19667984,5.97806614 3.15715415,4.64544709 C4.12,3.31052646 5.36505929,2.21957407 6.88521739,1.37028836 C8.41011858,0.521002646 10.176917,0.0952089947 12.1903557,0.0952089947 C15.9539921,0.0952089947 18.9682213,1.22989153 21.235415,3.49925661 C23.5026087,5.76632011 24.6362055,9.38211376 24.6362055,14.3420344 C24.6362055,17.5688598 24.0409486,20.2525106 22.8504348,22.3929868 C21.6599209,24.5357646 20.0259289,26.1146534 17.9532016,27.131955 C15.8781028,28.1538598 13.4947036,28.660209 10.7982609,28.660209 C4.0227668,28.660209 0.638577075,24.7636217 0.638577075,16.9658439 L14.5263241,16.9658439 C14.5618972,16.558463 14.5808696,15.927828 14.5808696,15.0808439" id="Fill-2" fill="#2D2D2D" mask="url(#mask-2)"></path>
            </g>
        </g>
    </g>
</svg>